<svg width="200" height="200" viewBox="0 0 200 200" xmlns="http://www.w3.org/2000/svg">
    <defs>
        <!-- Google Blue Gradient -->
        <linearGradient id="blueGradient" x1="0%" y1="0%" x2="100%" y2="100%">
            <stop offset="0%" style="stop-color:#4285F4;stop-opacity:1" />
            <stop offset="50%" style="stop-color:#5C9FFF;stop-opacity:1" />
            <stop offset="100%" style="stop-color:#4285F4;stop-opacity:1" />
        </linearGradient>
        <!-- Google Red Gradient -->
        <linearGradient id="redGradient" x1="0%" y1="0%" x2="100%" y2="100%">
            <stop offset="0%" style="stop-color:#DB4437;stop-opacity:1" />
            <stop offset="50%" style="stop-color:#FF5A4F;stop-opacity:1" />
            <stop offset="100%" style="stop-color:#DB4437;stop-opacity:1" />
        </linearGradient>
        <!-- Google Yellow Gradient -->
        <linearGradient id="yellowGradient" x1="0%" y1="0%" x2="100%" y2="100%">
            <stop offset="0%" style="stop-color:#F4B400;stop-opacity:1" />
            <stop offset="50%" style="stop-color:#FFCD33;stop-opacity:1" />
            <stop offset="100%" style="stop-color:#F4B400;stop-opacity:1" />
        </linearGradient>
        <!-- Google Green Gradient -->
        <linearGradient id="greenGradient" x1="0%" y1="0%" x2="100%" y2="100%">
            <stop offset="0%" style="stop-color:#0F9D58;stop-opacity:1" />
            <stop offset="50%" style="stop-color:#1BD97B;stop-opacity:1" />
            <stop offset="100%" style="stop-color:#0F9D58;stop-opacity:1" />
        </linearGradient>
        <!-- Shine Effect -->
        <radialGradient id="shineEffect" cx="50%" cy="50%" r="50%" fx="25%" fy="25%">
            <stop offset="0%" style="stop-color:white;stop-opacity:0.3" />
            <stop offset="100%" style="stop-color:white;stop-opacity:0" />
        </radialGradient>
    </defs>
    <rect width="200" height="200" fill="#000000"/>
    <g transform="translate(60,80) rotate(45)">
        <path d="M-20,-12
                 C-20,-17.5 -17.5,-20 -12,-20
                 L12,-20
                 C17.5,-20 20,-17.5 20,-12
                 L20,12
                 C20,17.5 17.5,20 12,20
                 L-12,20
                 C-17.5,20 -20,17.5 -20,12
                 Z"
              fill="url(#blueGradient)"/>
        <path d="M-20,-12
                 C-20,-17.5 -17.5,-20 -12,-20
                 L12,-20
                 C17.5,-20 20,-17.5 20,-12
                 L20,12
                 C20,17.5 17.5,20 12,20
                 L-12,20
                 C-17.5,20 -20,17.5 -20,12
                 Z"
              fill="url(#shineEffect)"/>
    </g>
    <g transform="translate(100,80) rotate(45)">
        <path d="M-20,-12
                 C-20,-17.5 -17.5,-20 -12,-20
                 L12,-20
                 C17.5,-20 20,-17.5 20,-12
                 L20,12
                 C20,17.5 17.5,20 12,20
                 L-12,20
                 C-17.5,20 -20,17.5 -20,12
                 Z"
              fill="url(#redGradient)"/>
        <path d="M-20,-12
                 C-20,-17.5 -17.5,-20 -12,-20
                 L12,-20
                 C17.5,-20 20,-17.5 20,-12
                 L20,12
                 C20,17.5 17.5,20 12,20
                 L-12,20
                 C-17.5,20 -20,17.5 -20,12
                 Z"
              fill="url(#shineEffect)"/>
    </g>
    <g transform="translate(140,80) rotate(45)">
        <path d="M-20,-12
                 C-20,-17.5 -17.5,-20 -12,-20
                 L12,-20
                 C17.5,-20 20,-17.5 20,-12
                 L20,12
                 C20,17.5 17.5,20 12,20
                 L-12,20
                 C-17.5,20 -20,17.5 -20,12
                 Z"
              fill="url(#yellowGradient)"/>
        <path d="M-20,-12
                 C-20,-17.5 -17.5,-20 -12,-20
                 L12,-20
                 C17.5,-20 20,-17.5 20,-12
                 L20,12
                 C20,17.5 17.5,20 12,20
                 L-12,20
                 C-17.5,20 -20,17.5 -20,12
                 Z"
              fill="url(#shineEffect)"/>
    </g>
    <g transform="translate(80,120) rotate(45)">
        <path d="M-20,-12
                 C-20,-17.5 -17.5,-20 -12,-20
                 L12,-20
                 C17.5,-20 20,-17.5 20,-12
                 L20,12
                 C20,17.5 17.5,20 12,20
                 L-12,20
                 C-17.5,20 -20,17.5 -20,12
                 Z"
              fill="url(#greenGradient)"/>
        <path d="M-20,-12
                 C-20,-17.5 -17.5,-20 -12,-20
                 L12,-20
                 C17.5,-20 20,-17.5 20,-12
                 L20,12
                 C20,17.5 17.5,20 12,20
                 L-12,20
                 C-17.5,20 -20,17.5 -20,12
                 Z"
              fill="url(#shineEffect)"/>
    </g>
    <g transform="translate(120,120) rotate(45)">
        <path d="M-20,-12
                 C-20,-17.5 -17.5,-20 -12,-20
                 L12,-20
                 C17.5,-20 20,-17.5 20,-12
                 L20,12
                 C20,17.5 17.5,20 12,20
                 L-12,20
                 C-17.5,20 -20,17.5 -20,12
                 Z"
              fill="url(#redGradient)"/>
        <path d="M-20,-12
                 C-20,-17.5 -17.5,-20 -12,-20
                 L12,-20
                 C17.5,-20 20,-17.5 20,-12
                 L20,12
                 C20,17.5 17.5,20 12,20
                 L-12,20
                 C-17.5,20 -20,17.5 -20,12
                 Z"
              fill="url(#shineEffect)"/>
    </g>
</svg>
