<svg width="200" height="200" viewBox="0 0 200 200" xmlns="http://www.w3.org/2000/svg">
    <rect width="200" height="200" fill="#FFFFFF"/>
    <g transform="translate(60,80) rotate(45)">
        <path d="M-20,-12
                 C-20,-17.5 -17.5,-20 -12,-20
                 L12,-20
                 C17.5,-20 20,-17.5 20,-12
                 L20,12
                 C20,17.5 17.5,20 12,20
                 L-12,20
                 C-17.5,20 -20,17.5 -20,12
                 Z"
              fill="#4285F4"/>
    </g>
    <g transform="translate(100,80) rotate(45)">
        <path d="M-20,-12
                 C-20,-17.5 -17.5,-20 -12,-20
                 L12,-20
                 C17.5,-20 20,-17.5 20,-12
                 L20,12
                 C20,17.5 17.5,20 12,20
                 L-12,20
                 C-17.5,20 -20,17.5 -20,12
                 Z"
              fill="#DB4437"/>
    </g>
    <g transform="translate(140,80) rotate(45)">
        <path d="M-20,-12
                 C-20,-17.5 -17.5,-20 -12,-20
                 L12,-20
                 C17.5,-20 20,-17.5 20,-12
                 L20,12
                 C20,17.5 17.5,20 12,20
                 L-12,20
                 C-17.5,20 -20,17.5 -20,12
                 Z"
              fill="#F4B400"/>
    </g>
    <g transform="translate(80,120) rotate(45)">
        <path d="M-20,-12
                 C-20,-17.5 -17.5,-20 -12,-20
                 L12,-20
                 C17.5,-20 20,-17.5 20,-12
                 L20,12
                 C20,17.5 17.5,20 12,20
                 L-12,20
                 C-17.5,20 -20,17.5 -20,12
                 Z"
              fill="#0F9D58"/>
    </g>
    <g transform="translate(120,120) rotate(45)">
        <path d="M-20,-12
                 C-20,-17.5 -17.5,-20 -12,-20
                 L12,-20
                 C17.5,-20 20,-17.5 20,-12
                 L20,12
                 C20,17.5 17.5,20 12,20
                 L-12,20
                 C-17.5,20 -20,17.5 -20,12
                 Z"
              fill="#DB4437"/>
    </g>
</svg>
